<svg width="995" height="298" xmlns="http://www.w3.org/2000/svg" xmlns:xlink="http://www.w3.org/1999/xlink" overflow="hidden"><defs><clipPath id="clip0"><rect x="107" y="231" width="995" height="298"/></clipPath></defs><g clip-path="url(#clip0)" transform="translate(-107 -231)"><rect x="315" y="327" width="357" height="199" stroke="#70AD47" stroke-width="4" stroke-linejoin="round" stroke-miterlimit="10" fill="none"/><path d="M315.5 331.167C315.5 329.142 317.142 327.5 319.167 327.5L375.833 327.5C377.858 327.5 379.5 329.142 379.5 331.167L379.5 345.833C379.5 347.858 377.858 349.5 375.833 349.5L319.167 349.5C317.142 349.5 315.5 347.858 315.5 345.833Z" stroke="#2F528F" stroke-width="1.33333" stroke-miterlimit="8" fill="#4472C4" fill-rule="evenodd"/><path d="M608.5 331.167C608.5 329.142 610.142 327.5 612.167 327.5L668.833 327.5C670.858 327.5 672.5 329.142 672.5 331.167L672.5 345.833C672.5 347.858 670.858 349.5 668.833 349.5L612.167 349.5C610.142 349.5 608.5 347.858 608.5 345.833Z" stroke="#2F528F" stroke-width="1.33333" stroke-miterlimit="8" fill="#4472C4" fill-rule="evenodd"/><path d="M315.5 508.167C315.5 506.142 317.142 504.5 319.167 504.5L375.833 504.5C377.858 504.5 379.5 506.142 379.5 508.167L379.5 522.833C379.5 524.858 377.858 526.5 375.833 526.5L319.167 526.5C317.142 526.5 315.5 524.858 315.5 522.833Z" stroke="#2F528F" stroke-width="1.33333" stroke-miterlimit="8" fill="#4472C4" fill-rule="evenodd"/><path d="M608.5 508.167C608.5 506.142 610.142 504.5 612.167 504.5L668.833 504.5C670.858 504.5 672.5 506.142 672.5 508.167L672.5 522.833C672.5 524.858 670.858 526.5 668.833 526.5L612.167 526.5C610.142 526.5 608.5 524.858 608.5 522.833Z" stroke="#2F528F" stroke-width="1.33333" stroke-miterlimit="8" fill="#4472C4" fill-rule="evenodd"/><path d="M431 343.834C431 338.403 435.403 334 440.834 334L555.166 334C560.597 334 565 338.403 565 343.834L565 383.166C565 388.597 560.597 393 555.166 393L440.834 393C435.403 393 431 388.597 431 383.166Z" fill="#ED7D31" fill-rule="evenodd" fill-opacity="0.501961"/><text fill="#FFFFFF" font-family="Calibri,Calibri_MSFontService,sans-serif" font-weight="400" font-size="24" transform="translate(464.129 371)">STM32</text><path d="M457.5 424.5C457.5 411.798 475.633 401.5 498 401.5 520.368 401.5 538.5 411.798 538.5 424.5 538.5 437.203 520.368 447.5 498 447.5 475.633 447.5 457.5 437.203 457.5 424.5Z" stroke="#5B9BD5" stroke-width="3" stroke-linejoin="round" stroke-miterlimit="10" fill="none" fill-rule="evenodd"/><text font-family="Calibri,Calibri_MSFontService,sans-serif" font-weight="700" font-size="21" transform="translate(479.611 435)">IMU</text><path d="M582.667 375 827.644 375 827.644 377 582.667 377ZM584 380 576 376 584 372ZM826.311 372 834.311 376 826.311 380Z"/><text font-family="Calibri,Calibri_MSFontService,sans-serif" font-weight="400" font-size="24" transform="translate(719.225 365)">USB</text><path d="M395.55 301.165 443.744 332.937 442.644 334.607 394.45 302.835ZM444.282 329.699 448.76 337.442 439.879 336.378Z"/><text font-family="Calibri,Calibri_MSFontService,sans-serif" font-weight="400" font-size="24" transform="translate(231.683 260)">Implémentation<tspan font-size="24" x="162.267" y="0">de </tspan><tspan font-size="24" x="192.433" y="0">l’algorithme</tspan><tspan font-size="24" x="0" y="29">de </tspan><tspan font-size="24" x="30.1667" y="29">filtrage</tspan><tspan font-size="24" x="104.473" y="29">sur </tspan>microcontrôleur</text><rect x="861" y="320" width="240" height="137" fill="#70AD47" fill-opacity="0.501961"/><text fill="#FFFFFF" font-family="Calibri,Calibri_MSFontService,sans-serif" font-weight="400" font-size="24" transform="translate(890.117 382)">Représentation<tspan font-size="24" x="154.367" y="0">3D </tspan><tspan font-size="24" x="36.6667" y="29">simultanée</tspan><tspan fill="#000000" font-size="24" x="32.8823" y="-73">Ordinateur</tspan><tspan fill="#000000" font-size="24" x="-767.398" y="39">Capteurs</tspan><tspan fill="#000000" font-size="24" x="-675.345" y="39">distance </tspan><tspan fill="#000000" font-size="24" x="-726.852" y="68">(hauteur)</tspan></text><path d="M0.609714-0.792621 45.9749 34.104 44.7555 35.6893-0.609714 0.792621ZM46.7472 30.9132 50.6493 38.9614 41.8695 37.2541Z" transform="matrix(1 0 0 -1 288 392.961)"/><path d="M281.751 441.34 329.84 496.114 328.337 497.433 280.249 442.66ZM331.214 493.133 333.486 501.783 325.202 498.411Z"/><path d="M404 467.667C404 462.328 408.328 458 413.667 458L583.333 458C588.672 458 593 462.328 593 467.667L593 506.333C593 511.672 588.672 516 583.333 516L413.667 516C408.328 516 404 511.672 404 506.333Z" fill="#A5A5A5" fill-rule="evenodd" fill-opacity="0.501961"/><text font-family="Calibri,Calibri_MSFontService,sans-serif" font-weight="400" font-size="24" transform="translate(441.139 494)">Breadboar<tspan font-size="24" x="102.027" y="0">d</tspan></text></g></svg>